<svg width="107" height="52" viewBox="0 0 107 52" fill="none" xmlns="http://www.w3.org/2000/svg">
<g clip-path="url(#clip0_1_38)">
<path d="M106.911 16.242C106.152 7.888 100.239 1.827 92.839 1.827C87.909 1.827 83.395 4.48 80.855 8.732C78.338 4.425 74.009 1.826 69.158 1.826C61.759 1.826 55.845 7.887 55.087 16.241C55.027 16.61 54.781 18.552 55.529 21.719C56.607 26.287 59.097 30.442 62.728 33.732L80.843 50.171L99.269 33.733C102.9 30.442 105.39 26.288 106.468 21.719C107.216 18.553 106.97 16.611 106.911 16.242Z" fill="#1976d2"/>
</g>
<g clip-path="url(#clip1_1_38)">
<path d="M51.911 16.242C51.152 7.888 45.239 1.827 37.839 1.827C32.909 1.827 28.395 4.48 25.855 8.732C23.338 4.425 19.009 1.826 14.158 1.826C6.75901 1.826 0.845007 7.887 0.0870074 16.241C0.0270074 16.61 -0.218993 18.552 0.529007 21.719C1.60701 26.287 4.09701 30.442 7.72801 33.732L25.843 50.171L44.269 33.733C47.9 30.442 50.39 26.288 51.468 21.719C52.216 18.553 51.97 16.611 51.911 16.242ZM49.521 21.261C48.537 25.433 46.256 29.234 42.931 32.246L25.855 47.481L9.07201 32.25C5.74101 29.232 3.46101 25.432 2.47601 21.26C1.76801 18.263 2.05901 16.57 2.06001 16.559L2.07501 16.458C2.72501 9.139 7.80601 3.826 14.158 3.826C18.845 3.826 22.971 6.706 24.929 11.341L25.85 13.524L26.771 11.341C28.698 6.777 33.042 3.827 37.84 3.827C44.191 3.827 49.273 9.14 49.936 16.554C49.938 16.57 50.229 18.264 49.521 21.261Z" fill="#1976d2"/>
</g>
<defs>
<clipPath id="clip0_1_38">
<rect width="51.997" height="51.997" fill="white" transform="translate(55)"/>
</clipPath>
<clipPath id="clip1_1_38">
<rect width="51.997" height="51.997" fill="white"/>
</clipPath>
</defs>
</svg>
