<svg width="32" height="32" viewBox="0 0 32 32" fill="none" xmlns="http://www.w3.org/2000/svg">
<path d="M22 12C23.1046 12 24 11.1046 24 10C24 8.89543 23.1046 8 22 8C20.8954 8 20 8.89543 20 10C20 11.1046 20.8954 12 22 12Z" fill="#1976D2"/>
<path d="M21 2C19.5946 1.99964 18.2087 2.3285 16.9533 2.96022C15.6978 3.59194 14.6079 4.50895 13.7707 5.63778C12.9335 6.7666 12.3724 8.07584 12.1323 9.46057C11.8922 10.8453 11.9798 12.267 12.3881 13.6118L2 24V30H8L18.3881 19.6118C19.626 19.9877 20.9304 20.0922 22.2124 19.9183C23.4944 19.7445 24.7239 19.2962 25.817 18.6042C26.9101 17.9122 27.8411 16.9926 28.5467 15.9082C29.2522 14.8238 29.7157 13.6 29.9055 12.3203C30.0953 11.0406 30.0069 9.73494 29.6465 8.49244C29.286 7.24993 28.6619 6.09974 27.8167 5.12026C26.9715 4.14078 25.9251 3.35503 24.7487 2.81657C23.5724 2.27811 22.2937 1.99959 21 2V2ZM21 18C20.3114 17.9996 19.6267 17.8978 18.9678 17.6978L17.821 17.35L16.9738 18.1972L13.7927 21.3784L12.4141 20L11 21.4141L12.3787 22.7927L10.7928 24.3787L9.4141 23L8 24.4141L9.3787 25.7927L7.1716 28H4V24.8284L13.8023 15.0261L14.6495 14.1787L14.3022 13.032C13.8748 11.623 13.9025 10.1151 14.3816 8.72274C14.8606 7.33042 15.7664 6.1246 16.9703 5.2768C18.1741 4.429 19.6147 3.9824 21.087 4.00053C22.5593 4.01866 23.9884 4.50059 25.171 5.37778C26.3536 6.25496 27.2295 7.48272 27.6741 8.88642C28.1187 10.2901 28.1093 11.7983 27.6473 13.1963C27.1853 14.5944 26.2942 15.8112 25.1008 16.6736C23.9074 17.536 22.4724 18.0002 21 18V18Z" fill="#1976D2"/>
</svg>
